<svg width="70" height="69" viewBox="0 0 70 69" fill="none" xmlns="http://www.w3.org/2000/svg">
<path d="M64.7263 3.70066C66.2705 5.34723 67.0426 7.50836 66.8882 9.77239C66.7853 14.3519 67.2485 18.9315 68.278 23.3566C70.8003 34.7283 67.0426 47.7979 57.4169 57.4201C48.2545 66.5277 36.055 70.3354 25.1425 68.5859C19.9436 67.6597 14.6417 67.5054 9.39131 68.0714C6.66316 68.3801 4.14092 67.7626 2.39079 66.0132C0.640659 64.2637 -0.028508 61.7424 0.331813 59.0152C1.00098 53.8182 1.00098 48.5183 0.331813 43.3213C-1.21242 32.5157 2.64816 20.578 11.6047 11.5733C21.076 2.10554 33.8931 -1.6507 45.166 0.664789C49.5928 1.53953 54.0711 1.84826 58.6008 1.59099C60.9687 1.48808 63.1821 2.157 64.7263 3.70066Z" fill="#FFE000"/>
<path d="M59.6818 22.6877C60.7628 25.1061 61.3805 27.7303 61.5349 30.406C61.6893 33.1331 61.4319 35.8603 60.8142 38.4845C59.4759 43.8359 56.7478 48.7756 52.9387 52.7376C49.1295 56.7512 44.3424 59.6841 39.092 61.2278C33.8931 62.7714 28.1795 62.8229 23.2894 60.9705C28.2824 60.7132 33.1725 59.5298 37.7022 57.4715C42.0261 55.4648 45.9381 52.6347 49.2325 49.1872C52.5783 45.7397 55.2035 41.7262 57.0051 37.301C58.8067 32.6186 59.7333 27.6789 59.6818 22.6877Z" fill="#FFBE00"/>
</svg>
